<mxfile host="app.diagrams.net" agent="Mozilla/5.0 (X11; Linux x86_64) AppleWebKit/537.36 (KHTML, like Gecko) Chrome/129.0.0.0 Safari/537.36" version="24.7.7">
  <diagram name="Page-1" id="VFngx8alxgX0edXpD1Mb">
    <mxGraphModel dx="1050" dy="579" grid="1" gridSize="10" guides="1" tooltips="1" connect="1" arrows="1" fold="1" page="1" pageScale="1" pageWidth="850" pageHeight="1100" math="0" shadow="0">
      <root>
        <mxCell id="0" />
        <mxCell id="1" parent="0" />
        <mxCell id="ie63YeDP68cIISli7fVT-5" value="" style="group" vertex="1" connectable="0" parent="1">
          <mxGeometry x="50" y="100" width="190" height="260" as="geometry" />
        </mxCell>
        <mxCell id="ie63YeDP68cIISli7fVT-2" value="" style="rounded=0;whiteSpace=wrap;html=1;" vertex="1" parent="ie63YeDP68cIISli7fVT-5">
          <mxGeometry width="190" height="249.60000000000002" as="geometry" />
        </mxCell>
        <mxCell id="ie63YeDP68cIISli7fVT-3" value="&lt;font style=&quot;font-size: 20px;&quot;&gt;&lt;b&gt;TRIPS&lt;/b&gt;&lt;/font&gt;" style="text;html=1;align=center;verticalAlign=middle;whiteSpace=wrap;rounded=0;strokeWidth=4;" vertex="1" parent="ie63YeDP68cIISli7fVT-5">
          <mxGeometry x="30" y="10.4" width="100" height="41.6" as="geometry" />
        </mxCell>
        <mxCell id="ie63YeDP68cIISli7fVT-4" value="&lt;ul&gt;&lt;li&gt;&lt;font style=&quot;font-size: 14px;&quot;&gt;ID&lt;/font&gt;&lt;/li&gt;&lt;li&gt;&lt;font style=&quot;font-size: 14px;&quot;&gt;Driver id&lt;/font&gt;&lt;/li&gt;&lt;li&gt;&lt;font style=&quot;font-size: 14px;&quot;&gt;rider id&lt;/font&gt;&lt;/li&gt;&lt;li&gt;&lt;font style=&quot;font-size: 14px;&quot;&gt;price&lt;/font&gt;&lt;/li&gt;&lt;li&gt;&lt;font style=&quot;font-size: 14px;&quot;&gt;pickup location&lt;/font&gt;&lt;/li&gt;&lt;li&gt;&lt;font style=&quot;font-size: 14px;&quot;&gt;Destination&lt;/font&gt;&lt;/li&gt;&lt;li&gt;&lt;font style=&quot;font-size: 14px;&quot;&gt;Date&lt;/font&gt;&lt;/li&gt;&lt;li&gt;&lt;font style=&quot;font-size: 14px;&quot;&gt;Status&lt;/font&gt;&lt;/li&gt;&lt;li&gt;&lt;font style=&quot;font-size: 14px;&quot;&gt;Ride type&lt;/font&gt;&lt;/li&gt;&lt;/ul&gt;" style="text;html=1;align=left;verticalAlign=middle;whiteSpace=wrap;rounded=0;" vertex="1" parent="ie63YeDP68cIISli7fVT-5">
          <mxGeometry x="10" y="62.400000000000006" width="140" height="166.4" as="geometry" />
        </mxCell>
        <mxCell id="ie63YeDP68cIISli7fVT-12" value="" style="group" vertex="1" connectable="0" parent="1">
          <mxGeometry x="320" y="100" width="190" height="250" as="geometry" />
        </mxCell>
        <mxCell id="ie63YeDP68cIISli7fVT-6" value="" style="rounded=0;whiteSpace=wrap;html=1;" vertex="1" parent="ie63YeDP68cIISli7fVT-12">
          <mxGeometry width="190" height="250" as="geometry" />
        </mxCell>
        <mxCell id="ie63YeDP68cIISli7fVT-10" value="DRIVER" style="text;html=1;align=center;verticalAlign=middle;whiteSpace=wrap;rounded=0;fontStyle=1;fontSize=22;" vertex="1" parent="ie63YeDP68cIISli7fVT-12">
          <mxGeometry x="37.5" y="20" width="95" height="30" as="geometry" />
        </mxCell>
        <mxCell id="ie63YeDP68cIISli7fVT-11" value="&lt;ul style=&quot;font-size: 14px;&quot;&gt;&lt;li style=&quot;font-size: 14px;&quot;&gt;ID&lt;/li&gt;&lt;li style=&quot;font-size: 14px;&quot;&gt;Ride type&lt;/li&gt;&lt;li style=&quot;font-size: 14px;&quot;&gt;Car info&lt;/li&gt;&lt;li style=&quot;font-size: 14px;&quot;&gt;age&amp;nbsp;&lt;/li&gt;&lt;li style=&quot;font-size: 14px;&quot;&gt;name&lt;/li&gt;&lt;li style=&quot;font-size: 14px;&quot;&gt;email&lt;/li&gt;&lt;li style=&quot;font-size: 14px;&quot;&gt;phone number&lt;/li&gt;&lt;li style=&quot;font-size: 14px;&quot;&gt;email&lt;/li&gt;&lt;li style=&quot;font-size: 14px;&quot;&gt;password hash&lt;/li&gt;&lt;li style=&quot;font-size: 14px;&quot;&gt;Other details&lt;/li&gt;&lt;/ul&gt;" style="text;html=1;align=left;verticalAlign=middle;whiteSpace=wrap;rounded=0;fontSize=14;" vertex="1" parent="ie63YeDP68cIISli7fVT-12">
          <mxGeometry y="60" width="152.5" height="170" as="geometry" />
        </mxCell>
        <mxCell id="ie63YeDP68cIISli7fVT-16" value="" style="group" vertex="1" connectable="0" parent="1">
          <mxGeometry x="590" y="100" width="210" height="250" as="geometry" />
        </mxCell>
        <mxCell id="ie63YeDP68cIISli7fVT-13" value="" style="rounded=0;whiteSpace=wrap;html=1;" vertex="1" parent="ie63YeDP68cIISli7fVT-16">
          <mxGeometry width="210" height="250" as="geometry" />
        </mxCell>
        <mxCell id="ie63YeDP68cIISli7fVT-14" value="&lt;b&gt;&lt;font style=&quot;font-size: 20px;&quot;&gt;RIDER&lt;/font&gt;&lt;/b&gt;" style="text;html=1;align=center;verticalAlign=middle;whiteSpace=wrap;rounded=0;" vertex="1" parent="ie63YeDP68cIISli7fVT-16">
          <mxGeometry x="70" y="20" width="60" height="30" as="geometry" />
        </mxCell>
        <mxCell id="ie63YeDP68cIISli7fVT-15" value="&lt;ul style=&quot;font-size: 14px;&quot;&gt;&lt;li&gt;ID&lt;/li&gt;&lt;li&gt;payment info&lt;/li&gt;&lt;li&gt;phone number&amp;nbsp;&lt;/li&gt;&lt;li&gt;email&amp;nbsp;&lt;/li&gt;&lt;li&gt;password hash&lt;/li&gt;&lt;li&gt;name&lt;/li&gt;&lt;li&gt;age&lt;/li&gt;&lt;li&gt;locations&lt;/li&gt;&lt;li&gt;other details&lt;/li&gt;&lt;/ul&gt;" style="text;html=1;align=left;verticalAlign=middle;whiteSpace=wrap;rounded=0;" vertex="1" parent="ie63YeDP68cIISli7fVT-16">
          <mxGeometry x="20" y="65" width="160" height="165" as="geometry" />
        </mxCell>
      </root>
    </mxGraphModel>
  </diagram>
</mxfile>
